<?xml version="1.0" encoding="utf-8"?>
<!-- Generator: Adobe Illustrator 24.1.0, SVG Export Plug-In . SVG Version: 6.00 Build 0)  -->
<svg version="1.1" id="Layer_1" xmlns="http://www.w3.org/2000/svg" xmlns:xlink="http://www.w3.org/1999/xlink" x="0px" y="0px"
	 viewBox="0 0 1024 1024" style="enable-background:new 0 0 1024 1024;" xml:space="preserve">
<style type="text/css">
	.st0{fill:#226DB4;}
	.st1{fill:#009849;}
	.st2{fill:#FFFFFF;}
</style>
<g>
	<g>
		<path class="st0" d="M211.03,855.48c-10.37,0-20.45-5.38-26.01-15L4.02,527c-5.36-9.28-5.36-20.72,0-30l241-417.38
			c5.36-9.28,15.26-15,25.98-15h482c14.17,0,26.53,9.86,29.47,23.72c2.93,13.84-4.08,27.79-16.99,33.56
			c-1.79,0.85-42.93,20.81-89.22,70.92c-27.6,29.87-51.64,64.51-71.47,102.95c-19.81,38.41-35.45,80.76-46.66,126.29l82.76-0.06
			c0.01,0,0.01,0,0.02,0c16.56,0,29.99,13.42,30,29.98c0.01,16.57-13.41,30.01-29.98,30.02l-120,0.08c-0.01,0-0.01,0-0.02,0
			c-8.93,0-17.4-3.98-23.1-10.86c-5.7-6.88-8.04-15.95-6.38-24.73c12.47-65.78,33.06-126.49,61.19-180.46
			c22.68-43.51,50.29-82.74,82.05-116.61c8.56-9.12,16.98-17.38,25.09-24.82H288.32L64.64,512l172.34,298.47
			c8.29,14.35,3.37,32.7-10.98,40.98C221.28,854.18,216.12,855.48,211.03,855.48z"/>
	</g>
	<g>
		<path class="st1" d="M753,959.38H271c-14.17,0-26.53-9.86-29.47-23.72c-2.93-13.84,4.08-27.79,16.99-33.56
			c1.71-0.81,42.88-20.76,89.22-70.91c27.59-29.87,51.63-64.5,71.46-102.93c19.81-38.4,35.45-80.75,46.67-126.27l-82.76,0
			c-16.57,0-30-13.43-30-30s13.43-30,30-30l119.98,0c8.94,0,17.41,3.98,23.11,10.87c5.7,6.88,8.04,15.95,6.37,24.73
			c-12.47,65.76-33.06,126.46-61.2,180.41c-22.68,43.5-50.29,82.72-82.05,116.58c-8.55,9.12-16.96,17.37-25.07,24.8h371.44
			L959.36,512L787.17,213.78c-8.28-14.35-3.37-32.7,10.98-40.98c14.35-8.29,32.7-3.37,40.98,10.98L1019.98,497
			c5.36,9.28,5.36,20.72,0,30l-241,417.38C773.62,953.67,763.72,959.38,753,959.38z"/>
	</g>
</g>
</svg>
